<svg xmlns="http://www.w3.org/2000/svg"
     viewBox="0 0 16 16"
     fill="none"
     aria-hidden="true">
    <path d="M8 4.667C8 3.96 7.719 3.281 7.219 2.781 6.719 2.281 6.041 2 5.333 2H1.333V12H6c.53 0 1.039.21 1.414.586.375.375.586.884.586 1.414M8 4.667V14m0-9.333c0-.707.281-1.386.781-1.886.5-.5 1.179-.781 1.886-.781h4V12h-4.667c-.53 0-1.039.21-1.414.586-.375.375-.586.884-.586 1.414"
          stroke="currentColor"
          stroke-width="1.2"
          stroke-linecap="round"
          stroke-linejoin="round"/>
</svg>
