<svg xmlns="http://www.w3.org/2000/svg"
     viewBox="0 0 30 30"
     fill="none">
    <path d="M10.7812 25C9.17542 25 7.81042 24.4379 6.68625 23.3137C5.56208 22.1896 5 20.8246 5 19.2188C5 18.4412 5.14917 17.6979 5.4475 16.9887C5.74583 16.2787 6.16417 15.6542 6.7025 15.115L15.115 6.7025C15.6533 6.16333 16.2775 5.745 16.9875 5.4475C17.6983 5.14917 18.4425 5 19.22 5C20.8258 5 22.1908 5.56208 23.315 6.68625C24.4392 7.81042 25.0008 9.17542 25 10.7812C25 11.5588 24.8508 12.3025 24.5525 13.0125C24.255 13.7217 23.8371 14.3458 23.2987 14.885L14.885 23.2975C14.3467 23.8358 13.7225 24.2542 13.0125 24.5525C12.3025 24.8508 11.5588 25 10.7812 25ZM18.6613 17.745L22.4375 14C22.8542 13.5833 23.1771 13.0937 23.4062 12.5312C23.6354 11.9687 23.75 11.3854 23.75 10.7812C23.75 9.53125 23.3071 8.46375 22.4212 7.57875C21.5354 6.69375 20.4679 6.25083 19.2188 6.25C18.6146 6.25 18.0312 6.36458 17.4688 6.59375C16.9063 6.82292 16.4167 7.14583 16 7.5625L12.255 11.3387L18.6613 17.745ZM10.7812 23.75C11.3854 23.75 11.9687 23.6354 12.5312 23.4062C13.0937 23.1771 13.5833 22.8542 14 22.4375L17.745 18.6613L11.3387 12.255L7.5625 16C7.14583 16.4167 6.82292 16.9063 6.59375 17.4688C6.36458 18.0312 6.25 18.6146 6.25 19.2188C6.25 20.4688 6.69292 21.5367 7.57875 22.4225C8.46458 23.3083 9.53208 23.7508 10.7812 23.75Z"
          fill="currentColor"/>
</svg>
